<mxfile host="65bd71144e">
    <diagram id="A4emRJMYmsKgerJQooKa" name="Page-1">
        <mxGraphModel dx="1299" dy="720" grid="1" gridSize="10" guides="1" tooltips="1" connect="1" arrows="1" fold="1" page="1" pageScale="1" pageWidth="827" pageHeight="1169" math="0" shadow="0">
            <root>
                <mxCell id="0"/>
                <mxCell id="1" parent="0"/>
                <mxCell id="3" value="" style="sketch=0;html=1;dashed=0;whitespace=wrap;fillColor=#2875E2;strokeColor=#ffffff;points=[[0.005,0.63,0],[0.1,0.2,0],[0.9,0.2,0],[0.5,0,0],[0.995,0.63,0],[0.72,0.99,0],[0.5,1,0],[0.28,0.99,0]];shape=mxgraph.kubernetes.icon;prIcon=pod" parent="1" vertex="1">
                    <mxGeometry x="136" y="120" width="50" height="48" as="geometry"/>
                </mxCell>
                <mxCell id="6" value="" style="sketch=0;aspect=fixed;html=1;points=[];align=center;image;fontSize=12;image=img/lib/mscae/Docker.svg;" parent="1" vertex="1">
                    <mxGeometry x="257.5" y="240" width="50" height="41" as="geometry"/>
                </mxCell>
                <mxCell id="7" value="Dockerfile" style="verticalLabelPosition=bottom;html=1;verticalAlign=top;align=center;strokeColor=none;fillColor=#00BEF2;shape=mxgraph.azure.cloud_services_configuration_file;pointerEvents=1;" parent="1" vertex="1">
                    <mxGeometry x="261" y="320" width="47.5" height="50" as="geometry"/>
                </mxCell>
                <mxCell id="8" value="gravity" style="sketch=0;aspect=fixed;html=1;points=[];align=center;image;fontSize=12;image=img/lib/mscae/Image_Versions.svg;" parent="1" vertex="1">
                    <mxGeometry x="140" y="237" width="50" height="48" as="geometry"/>
                </mxCell>
                <mxCell id="10" value="" style="endArrow=classic;html=1;exitX=0.5;exitY=0;exitDx=0;exitDy=0;exitPerimeter=0;entryX=0.55;entryY=1.049;entryDx=0;entryDy=0;entryPerimeter=0;" parent="1" source="7" target="6" edge="1">
                    <mxGeometry width="50" height="50" relative="1" as="geometry">
                        <mxPoint x="330" y="330" as="sourcePoint"/>
                        <mxPoint x="380" y="280" as="targetPoint"/>
                    </mxGeometry>
                </mxCell>
                <mxCell id="11" value="" style="endArrow=classic;html=1;exitX=0.01;exitY=0.488;exitDx=0;exitDy=0;exitPerimeter=0;" parent="1" source="6" target="8" edge="1">
                    <mxGeometry width="50" height="50" relative="1" as="geometry">
                        <mxPoint x="100" y="360" as="sourcePoint"/>
                        <mxPoint x="150" y="310" as="targetPoint"/>
                    </mxGeometry>
                </mxCell>
                <mxCell id="12" value="dxos" style="verticalLabelPosition=bottom;html=1;verticalAlign=top;align=center;strokeColor=none;fillColor=#00BEF2;shape=mxgraph.azure.github_code;pointerEvents=1;" parent="1" vertex="1">
                    <mxGeometry x="140" y="320" width="50" height="50" as="geometry"/>
                </mxCell>
                <mxCell id="13" value="" style="endArrow=classic;html=1;exitX=0.5;exitY=0;exitDx=0;exitDy=0;exitPerimeter=0;entryX=0.5;entryY=1;entryDx=0;entryDy=0;entryPerimeter=0;" parent="1" source="12" target="8" edge="1">
                    <mxGeometry width="50" height="50" relative="1" as="geometry">
                        <mxPoint x="200" y="330" as="sourcePoint"/>
                        <mxPoint x="250" y="280" as="targetPoint"/>
                    </mxGeometry>
                </mxCell>
                <mxCell id="14" value="" style="endArrow=classic;html=1;exitX=0.4;exitY=-0.083;exitDx=0;exitDy=0;exitPerimeter=0;entryX=0.5;entryY=1;entryDx=0;entryDy=0;entryPerimeter=0;" parent="1" source="8" target="3" edge="1">
                    <mxGeometry width="50" height="50" relative="1" as="geometry">
                        <mxPoint x="210" y="210" as="sourcePoint"/>
                        <mxPoint x="260" y="160" as="targetPoint"/>
                    </mxGeometry>
                </mxCell>
                <mxCell id="15" value="" style="verticalLabelPosition=bottom;html=1;verticalAlign=top;align=center;strokeColor=none;fillColor=#00BEF2;shape=mxgraph.azure.script_file;pointerEvents=1;" parent="1" vertex="1">
                    <mxGeometry x="10" y="230" width="47.5" height="50" as="geometry"/>
                </mxCell>
                <mxCell id="16" value="" style="verticalLabelPosition=bottom;html=1;verticalAlign=top;align=center;strokeColor=none;fillColor=#00BEF2;shape=mxgraph.azure.script_file;pointerEvents=1;" parent="1" vertex="1">
                    <mxGeometry x="20" y="240" width="47.5" height="50" as="geometry"/>
                </mxCell>
                <mxCell id="17" value="" style="endArrow=classic;html=1;exitX=1;exitY=0.5;exitDx=0;exitDy=0;exitPerimeter=0;entryX=-0.1;entryY=0.583;entryDx=0;entryDy=0;entryPerimeter=0;" parent="1" source="16" target="8" edge="1">
                    <mxGeometry width="50" height="50" relative="1" as="geometry">
                        <mxPoint x="100" y="240" as="sourcePoint"/>
                        <mxPoint x="150" y="190" as="targetPoint"/>
                    </mxGeometry>
                </mxCell>
                <mxCell id="18" value="config/spec" style="text;html=1;strokeColor=none;fillColor=none;align=center;verticalAlign=middle;whiteSpace=wrap;rounded=0;" vertex="1" parent="1">
                    <mxGeometry x="8" y="300" width="60" height="30" as="geometry"/>
                </mxCell>
                <mxCell id="19" value="" style="sketch=0;html=1;dashed=0;whitespace=wrap;fillColor=#2875E2;strokeColor=#ffffff;points=[[0.005,0.63,0],[0.1,0.2,0],[0.9,0.2,0],[0.5,0,0],[0.995,0.63,0],[0.72,0.99,0],[0.5,1,0],[0.28,0.99,0]];shape=mxgraph.kubernetes.icon;prIcon=ep" vertex="1" parent="1">
                    <mxGeometry x="261" y="120" width="50" height="48" as="geometry"/>
                </mxCell>
                <mxCell id="20" value="deployment" style="text;html=1;strokeColor=none;fillColor=none;align=center;verticalAlign=middle;whiteSpace=wrap;rounded=0;" vertex="1" parent="1">
                    <mxGeometry x="130" y="90" width="60" height="30" as="geometry"/>
                </mxCell>
                <mxCell id="21" value="k8s" style="text;html=1;strokeColor=none;fillColor=none;align=center;verticalAlign=middle;whiteSpace=wrap;rounded=0;" vertex="1" parent="1">
                    <mxGeometry x="258" y="90" width="60" height="30" as="geometry"/>
                </mxCell>
                <mxCell id="22" value="" style="endArrow=classic;html=1;exitX=0.995;exitY=0.63;exitDx=0;exitDy=0;exitPerimeter=0;entryX=0.005;entryY=0.63;entryDx=0;entryDy=0;entryPerimeter=0;" edge="1" parent="1" source="3" target="19">
                    <mxGeometry width="50" height="50" relative="1" as="geometry">
                        <mxPoint x="200" y="140" as="sourcePoint"/>
                        <mxPoint x="250" y="90" as="targetPoint"/>
                    </mxGeometry>
                </mxCell>
                <mxCell id="23" value="" style="verticalLabelPosition=bottom;html=1;verticalAlign=top;align=center;strokeColor=none;fillColor=#00BEF2;shape=mxgraph.azure.vhd_data_disk;pointerEvents=1;" vertex="1" parent="1">
                    <mxGeometry x="395" y="125" width="37.5" height="50" as="geometry"/>
                </mxCell>
                <mxCell id="24" value="" style="endArrow=classic;html=1;exitX=0.995;exitY=0.63;exitDx=0;exitDy=0;exitPerimeter=0;entryX=0;entryY=0.5;entryDx=0;entryDy=0;entryPerimeter=0;" edge="1" parent="1" source="19" target="23">
                    <mxGeometry width="50" height="50" relative="1" as="geometry">
                        <mxPoint x="350" y="120" as="sourcePoint"/>
                        <mxPoint x="400" y="70" as="targetPoint"/>
                    </mxGeometry>
                </mxCell>
                <mxCell id="25" value="test logs" style="text;html=1;strokeColor=none;fillColor=none;align=center;verticalAlign=middle;whiteSpace=wrap;rounded=0;" vertex="1" parent="1">
                    <mxGeometry x="384" y="175" width="60" height="30" as="geometry"/>
                </mxCell>
                <mxCell id="26" value="datadog" style="outlineConnect=0;dashed=0;verticalLabelPosition=bottom;verticalAlign=top;align=center;html=1;shape=mxgraph.aws3.quicksight;fillColor=#00B7F4;gradientColor=none;" vertex="1" parent="1">
                    <mxGeometry x="520" y="120" width="60" height="60" as="geometry"/>
                </mxCell>
                <mxCell id="27" value="" style="endArrow=classic;html=1;exitX=1;exitY=0.5;exitDx=0;exitDy=0;exitPerimeter=0;entryX=0;entryY=0.5;entryDx=0;entryDy=0;entryPerimeter=0;" edge="1" parent="1" source="23" target="26">
                    <mxGeometry width="50" height="50" relative="1" as="geometry">
                        <mxPoint x="480" y="100" as="sourcePoint"/>
                        <mxPoint x="530" y="50" as="targetPoint"/>
                    </mxGeometry>
                </mxCell>
            </root>
        </mxGraphModel>
    </diagram>
</mxfile>